# xmcd
#
# Track frame offsets: 
#        150
#        16889
#        35418
#        54351
#        74576
#        95212
#        116189
#        131967
#        148048
#        167050
#        185453
#        200198
#
# Disc length: 2943 seconds
#
# Revision: 2
# Processed by: cddbd v1.5.2PL0 Copyright (c) Steve Scherf et al.
# Submitted via: ExactAudioCopy v0.99pb4
#
DISCID=bd0b7d0c
DTITLE=Macy Gray - The Trouble With Being Myself
DYEAR=2003
DGENRE=R&B/Soul
TTITLE0=When I See You
TTITLE1=It Ain't The Money (feat. Pharoahe Monch)
TTITLE2=She Ain't Right For You
TTITLE3=Things That Made Me Change
TTITLE4=Come Together
TTITLE5=She Don't Write Songs About You
TTITLE6=Jesus For A Day
TTITLE7=My Fondest Childhood Memories
TTITLE8=Hapiness
TTITLE9=Speechless
TTITLE10=Screamin'
TTITLE11=Every Now And Then
EXTD=Label: Sony Music Entertainment Inc. - Epic\n510810 2
EXTT0=
EXTT1=
EXTT2=
EXTT3=
EXTT4=
EXTT5=
EXTT6=
EXTT7=
EXTT8=
EXTT9=
EXTT10=
EXTT11=
PLAYORDER=
